<svg xmlns="http://www.w3.org/2000/svg" viewBox="0 0 391.54 276.09"><defs><style>.cls-1{isolation:isolate;}.cls-2{mix-blend-mode:multiply;}.cls-3{fill:#fff;}.cls-4{fill:#e3e3e3;}.cls-5{fill:#c6c6c6;}.cls-6{fill:#aaa;}.cls-7{fill:#8e8e8e;}.cls-8{fill:#717171;}.cls-9{fill:#555;}.cls-10{fill:#393939;}.cls-11{fill:#1c1c1c;}.cls-12{fill:#f10000;}.cls-13{fill:#272727;}</style></defs><g class="cls-1"><g id="Graphic_Element" data-name="Graphic Element"><g class="cls-2"><path class="cls-3" d="M446,85.17a147.59,147.59,0,0,0-26.6.4c-1.33.14-2.68.3-3.95.47a148.44,148.44,0,0,0-34.26,8.76l-.38.15-1.95.81a151.16,151.16,0,0,0-16.58,8l-31.63,17.73a28.23,28.23,0,0,0-15.47,2.26c-3.63,1.54-9.33,4.38-20.34,10.14-5.86,3.07-12.83,6.78-20.49,10.91a23.76,23.76,0,0,0-18.76,1.89l-10.24,5.74a23.81,23.81,0,0,0-14.1.12c-3.64,1.08-7.69,3.07-21.55,10.54-10.15,5.46-23.64,12.9-38,20.95-41.84,23.45-51.15,29.31-55.27,32.38a27.07,27.07,0,0,0-11.07,13.93c-3.94,11-.92,23,2.16,32.24,3.6,10.79,9.76,24.18,17.34,37.7,8.66,15.46,16.88,27.61,24.42,36.11,17.53,19.75,32.07,19.53,41.55,15.4,5-1.78,15.14-6.56,57-30,14.56-8.15,28.16-15.93,38.28-21.89,14.64-8.63,18.65-11.3,21.78-14.62a23.62,23.62,0,0,0,6-10.59l11.51-6.45.46-.27.28-.17.39-.24a23.5,23.5,0,0,0,10.41-15L341.3,250c16.89-9.84,26.13-15.37,30.89-18.47,6.68-4.35,10.45-9,12.43-13.38l28.67-16.06A148.25,148.25,0,0,0,450,173l1.07-1.17c2.49-2.77,4.51-5.17,6.37-7.54l.18-.23,2.12-2.79.13-.17a148.62,148.62,0,0,0,16.26-27.75,34.17,34.17,0,0,0-28.61-48Z" transform="translate(-103.49 -77.91)"/><path class="cls-4" d="M447.76,84.41a147.58,147.58,0,0,0-26.6.4c-1.34.14-2.69.3-4,.47A147.31,147.31,0,0,0,383,94l-.38.15-2,.81A151.88,151.88,0,0,0,364,103L332.4,120.69A28.2,28.2,0,0,0,316.94,123c-3.63,1.54-9.34,4.38-20.34,10.14-5.86,3.07-12.83,6.78-20.49,10.91a23.76,23.76,0,0,0-18.76,1.89l-10.24,5.74a24.14,24.14,0,0,0-14.1.12c-3.63,1.12-7.69,3.07-21.55,10.54-10.15,5.46-23.64,12.9-38,21-41.84,23.45-51.16,29.31-55.27,32.38a27,27,0,0,0-11.07,13.93c-3.94,11-.92,23,2.16,32.24,3.6,10.79,9.76,24.18,17.33,37.7C135.28,315,143.49,327.1,151,335.6c17.53,19.75,32.07,19.53,41.55,15.4,5-1.78,15.14-6.56,57-30,14.56-8.15,28.15-15.93,38.28-21.89,14.63-8.63,18.61-11.33,21.77-14.62a23.92,23.92,0,0,0,6-10.59l11.5-6.45.47-.27.28-.17.39-.24a23.5,23.5,0,0,0,10.41-15q2.22-1.28,4.37-2.54c16.9-9.84,26.13-15.37,30.9-18.47,6.67-4.35,10.45-9,12.43-13.38l28.67-16.06a148.25,148.25,0,0,0,36.75-29.1l1.07-1.17c2.48-2.77,4.51-5.17,6.37-7.54l.18-.23,2.12-2.79.13-.17a149.17,149.17,0,0,0,16.26-27.75,34.17,34.17,0,0,0-28.61-48.05Z" transform="translate(-103.49 -77.91)"/><path class="cls-5" d="M449.52,83.65a147.58,147.58,0,0,0-26.6.4c-1.34.14-2.69.3-3.95.47a147.18,147.18,0,0,0-34.26,8.76l-.38.15-2,.81a151,151,0,0,0-16.57,8l-31.64,17.73a28.2,28.2,0,0,0-15.46,2.26c-3.63,1.54-9.34,4.38-20.34,10.14-5.86,3.07-12.83,6.78-20.49,10.91a23.76,23.76,0,0,0-18.76,1.89l-10.24,5.74a24.14,24.14,0,0,0-14.1.12c-3.63,1.12-7.69,3.07-21.55,10.54-10.15,5.46-23.64,12.9-38,20.95-41.84,23.45-51.16,29.31-55.27,32.38a27,27,0,0,0-11.07,13.93c-3.94,11-.92,23,2.16,32.24,3.6,10.79,9.76,24.18,17.33,37.7,8.67,15.46,16.88,27.61,24.43,36.11,17.53,19.75,32.07,19.53,41.55,15.4,5-1.78,15.14-6.56,57-30,14.56-8.15,28.15-15.93,38.28-21.89,14.63-8.63,18.61-11.33,21.77-14.62a23.92,23.92,0,0,0,6-10.59l11.5-6.45.47-.27.28-.17L330,266a23.5,23.5,0,0,0,10.41-15q2.22-1.28,4.37-2.54c16.89-9.84,26.13-15.37,30.9-18.47,6.67-4.35,10.45-9,12.43-13.38l28.67-16.06a148.2,148.2,0,0,0,36.74-29.1l1.07-1.17c2.49-2.77,4.52-5.17,6.38-7.54l.18-.23,2.12-2.79.13-.17a149.72,149.72,0,0,0,16.26-27.75,34.17,34.17,0,0,0-28.62-48Z" transform="translate(-103.49 -77.91)"/><path class="cls-6" d="M451.28,82.89a147.58,147.58,0,0,0-26.6.4c-1.34.14-2.69.3-3.95.47a147.18,147.18,0,0,0-34.26,8.76l-.38.15-2,.81a151,151,0,0,0-16.57,8l-31.64,17.73a28.2,28.2,0,0,0-15.46,2.26c-3.63,1.54-9.34,4.38-20.34,10.14-5.86,3.07-12.83,6.78-20.49,10.91a23.76,23.76,0,0,0-18.76,1.89l-10.24,5.74a24.14,24.14,0,0,0-14.1.12c-3.63,1.12-7.69,3.07-21.56,10.54-10.14,5.46-23.64,12.9-38,20.95-41.84,23.45-51.16,29.31-55.27,32.38A27,27,0,0,0,110.64,228c-3.94,11-.92,23,2.16,32.24,3.6,10.79,9.75,24.18,17.33,37.7,8.67,15.46,16.88,27.61,24.43,36.11,17.53,19.75,32.07,19.53,41.55,15.4,5-1.78,15.14-6.56,57-30,14.56-8.15,28.15-15.93,38.28-21.89C306,289,310,286.26,313.15,283a23.92,23.92,0,0,0,6-10.59l11.5-6.45.47-.27.28-.17.39-.24a23.51,23.51,0,0,0,10.41-15l4.37-2.55c16.89-9.84,26.13-15.37,30.9-18.47,6.67-4.35,10.44-9,12.43-13.38l28.67-16.06a148.2,148.2,0,0,0,36.74-29.1l1.07-1.17c2.49-2.77,4.52-5.17,6.38-7.54l.18-.23,2.12-2.79.12-.17a149.22,149.22,0,0,0,16.27-27.75,34.17,34.17,0,0,0-28.62-48Z" transform="translate(-103.49 -77.91)"/><path class="cls-7" d="M453,82.13a147.56,147.56,0,0,0-26.6.4c-1.34.14-2.69.3-3.95.47a147.18,147.18,0,0,0-34.26,8.76l-.38.15-2,.81a152,152,0,0,0-16.58,8l-31.63,17.73a28.19,28.19,0,0,0-15.46,2.26c-3.64,1.54-9.34,4.38-20.34,10.14-5.87,3.07-12.83,6.78-20.49,10.91a23.76,23.76,0,0,0-18.76,1.89l-10.25,5.74a24.11,24.11,0,0,0-14.09.12c-3.63,1.12-7.69,3.07-21.56,10.54-10.14,5.46-23.64,12.9-38,21-41.84,23.45-51.16,29.31-55.28,32.38a27,27,0,0,0-11.06,13.93c-3.94,11-.92,23,2.16,32.24,3.6,10.79,9.75,24.18,17.33,37.7,8.67,15.46,16.88,27.61,24.42,36.11,17.53,19.75,32.08,19.53,41.56,15.4,5-1.78,15.14-6.56,57-30,14.56-8.15,28.15-15.93,38.28-21.89,14.63-8.63,18.61-11.33,21.77-14.62a23.92,23.92,0,0,0,6-10.59l11.5-6.45.47-.27.28-.17.39-.24a23.54,23.54,0,0,0,10.41-15l4.37-2.55c16.89-9.84,26.13-15.37,30.9-18.47,6.67-4.35,10.44-9,12.43-13.38l28.67-16.06A148.2,148.2,0,0,0,457.07,170l1.07-1.17c2.49-2.77,4.52-5.17,6.38-7.54l.18-.23,2.12-2.79.12-.17a149.22,149.22,0,0,0,16.27-27.75,34.17,34.17,0,0,0-28.62-48.05Z" transform="translate(-103.49 -77.91)"/><path class="cls-8" d="M454.8,81.37a147.56,147.56,0,0,0-26.6.4c-1.34.14-2.69.3-3.95.47A147.18,147.18,0,0,0,390,91l-.38.15-2,.81a152,152,0,0,0-16.58,8l-31.63,17.73A28.19,28.19,0,0,0,324,119.91c-3.64,1.54-9.34,4.38-20.35,10.14-5.86,3.07-12.82,6.78-20.49,10.91a23.74,23.74,0,0,0-18.75,1.89l-10.25,5.74a24.11,24.11,0,0,0-14.09.12c-3.64,1.12-7.69,3.07-21.56,10.54-10.14,5.46-23.64,12.9-38,20.95-41.84,23.45-51.16,29.31-55.28,32.38a27,27,0,0,0-11.06,13.93c-3.94,11-.92,23,2.16,32.24,3.6,10.79,9.75,24.18,17.33,37.7,8.66,15.46,16.88,27.61,24.42,36.11,17.53,19.75,32.07,19.53,41.56,15.4,5-1.78,15.14-6.56,57-30,14.56-8.15,28.15-15.93,38.28-21.89,14.63-8.63,18.61-11.33,21.77-14.62a23.92,23.92,0,0,0,6-10.59l11.5-6.45.46-.27.29-.17.39-.24a23.54,23.54,0,0,0,10.41-15l4.37-2.55c16.89-9.84,26.13-15.37,30.9-18.47,6.67-4.35,10.44-9,12.43-13.38l28.67-16.06a148.2,148.2,0,0,0,36.74-29.1L459.9,168c2.49-2.77,4.52-5.17,6.38-7.54l.18-.23,2.12-2.79.12-.17A148.62,148.62,0,0,0,485,129.54a34.16,34.16,0,0,0-28.61-48Z" transform="translate(-103.49 -77.91)"/><path class="cls-9" d="M456.55,80.61A147.47,147.47,0,0,0,430,81c-1.34.14-2.69.3-3.95.47a147.18,147.18,0,0,0-34.26,8.76l-.38.15-2,.81a151.16,151.16,0,0,0-16.58,8L341.2,116.89a28.19,28.19,0,0,0-15.46,2.26c-3.64,1.54-9.34,4.38-20.35,10.15-5.86,3.06-12.82,6.77-20.49,10.9a23.74,23.74,0,0,0-18.75,1.89l-10.25,5.74a24.11,24.11,0,0,0-14.09.12c-3.64,1.12-7.69,3.07-21.56,10.54-10.15,5.46-23.64,12.9-38,20.95-41.84,23.45-51.16,29.31-55.28,32.38a27,27,0,0,0-11.06,13.93c-3.94,11-.92,23,2.16,32.24,3.6,10.79,9.75,24.18,17.33,37.7,8.66,15.46,16.88,27.61,24.42,36.11,17.53,19.75,32.07,19.53,41.56,15.4,5-1.78,15.14-6.56,57-30,14.56-8.15,28.15-15.93,38.28-21.89,14.63-8.63,18.61-11.33,21.77-14.62a23.92,23.92,0,0,0,6-10.59l11.5-6.45.46-.27.29-.17.39-.24a23.54,23.54,0,0,0,10.41-15l4.37-2.55c16.89-9.84,26.13-15.37,30.9-18.47,6.67-4.35,10.44-9,12.43-13.38l28.67-16.06a148.2,148.2,0,0,0,36.74-29.1l1.07-1.17c2.49-2.77,4.52-5.17,6.38-7.54.06-.08.12-.15.17-.23l2.13-2.79.12-.17a148.62,148.62,0,0,0,16.26-27.75,34.16,34.16,0,0,0-28.61-48Z" transform="translate(-103.49 -77.91)"/><path class="cls-10" d="M458.31,79.85a147.47,147.47,0,0,0-26.59.4c-1.34.14-2.69.3-4,.47a147.18,147.18,0,0,0-34.26,8.76l-.38.15-2,.81a151.16,151.16,0,0,0-16.58,8L343,116.13a28.19,28.19,0,0,0-15.46,2.26c-3.64,1.54-9.34,4.38-20.35,10.14-5.86,3.07-12.82,6.78-20.49,10.91a23.74,23.74,0,0,0-18.75,1.89l-10.25,5.74a24.11,24.11,0,0,0-14.09.12c-3.64,1.12-7.69,3.07-21.56,10.54-10.15,5.46-23.64,12.9-38,21-41.85,23.45-51.16,29.31-55.28,32.38A27,27,0,0,0,117.68,225c-4,11-.92,23,2.15,32.24,3.6,10.79,9.76,24.18,17.34,37.7,8.66,15.46,16.88,27.61,24.42,36.11,17.53,19.75,32.07,19.53,41.56,15.4,5-1.78,15.13-6.56,57-30,14.56-8.15,28.15-15.93,38.28-21.89,14.63-8.63,18.61-11.33,21.77-14.62a23.92,23.92,0,0,0,6-10.59l11.5-6.45.46-.27.29-.17.39-.24a23.54,23.54,0,0,0,10.41-15l4.37-2.55c16.89-9.84,26.13-15.37,30.89-18.47,6.68-4.35,10.45-9,12.44-13.38l28.66-16.06a148.07,148.07,0,0,0,36.75-29.1l1.07-1.17c2.49-2.77,4.51-5.17,6.38-7.54.06-.08.12-.15.17-.23l2.13-2.79.12-.17A148.62,148.62,0,0,0,488.48,128,34.16,34.16,0,0,0,459.87,80Z" transform="translate(-103.49 -77.91)"/><path class="cls-11" d="M460.07,79.1a146.56,146.56,0,0,0-26.59.39c-1.34.14-2.69.3-4,.47a147.05,147.05,0,0,0-34.26,8.76l-.38.15-2,.81a151.16,151.16,0,0,0-16.58,8l-31.63,17.73a28.19,28.19,0,0,0-15.46,2.26c-3.64,1.54-9.34,4.38-20.35,10.15-5.86,3.06-12.82,6.77-20.49,10.9a23.76,23.76,0,0,0-18.76,1.89l-10.24,5.74a24.11,24.11,0,0,0-14.09.12c-3.64,1.12-7.69,3.07-21.56,10.54-10.15,5.46-23.64,12.9-38,20.95-41.85,23.45-51.16,29.31-55.28,32.38a27.07,27.07,0,0,0-11.07,13.93c-3.94,11-.91,23,2.16,32.24,3.6,10.79,9.76,24.18,17.34,37.7,8.66,15.46,16.88,27.61,24.42,36.11,17.53,19.75,32.07,19.53,41.55,15.4,5-1.78,15.14-6.56,57-30,14.56-8.15,28.15-15.93,38.28-21.89,14.63-8.63,18.61-11.33,21.77-14.62a23.92,23.92,0,0,0,6-10.59l11.5-6.45.46-.27.29-.17.39-.24a23.58,23.58,0,0,0,10.41-15l4.37-2.55c16.89-9.84,26.13-15.37,30.89-18.47,6.68-4.35,10.45-9,12.44-13.38L427.36,196a148.07,148.07,0,0,0,36.75-29.1l1.07-1.17c2.49-2.77,4.51-5.17,6.38-7.54.06-.08.12-.15.17-.23l2.12-2.79L474,155a148.62,148.62,0,0,0,16.26-27.75,34.16,34.16,0,0,0-28.61-48.05Z" transform="translate(-103.49 -77.91)"/><path d="M461.83,78.34a146.56,146.56,0,0,0-26.59.39c-1.34.14-2.69.3-3.95.47A148.69,148.69,0,0,0,397,88l-.39.15-1.95.81a151.16,151.16,0,0,0-16.58,8l-31.63,17.73A28.24,28.24,0,0,0,331,116.87c-3.63,1.54-9.33,4.38-20.34,10.15-5.86,3.06-12.83,6.77-20.49,10.9a23.76,23.76,0,0,0-18.76,1.89l-10.24,5.74a23.85,23.85,0,0,0-14.09.12c-3.65,1.08-7.7,3.07-21.56,10.54-10.15,5.46-23.64,12.9-38,20.95-41.85,23.45-51.16,29.31-55.28,32.38a27.07,27.07,0,0,0-11.07,13.93c-3.94,11-.91,23,2.16,32.24,3.6,10.79,9.76,24.18,17.34,37.7,8.66,15.46,16.88,27.61,24.42,36.11,17.53,19.75,32.07,19.53,41.55,15.4,5-1.78,15.14-6.56,57-30,14.55-8.15,28.15-15.93,38.27-21.89,14.64-8.63,18.65-11.3,21.78-14.62a23.52,23.52,0,0,0,6-10.59l11.51-6.45.46-.27.29-.17.39-.24a23.58,23.58,0,0,0,10.41-15l4.37-2.55c16.89-9.84,26.13-15.37,30.89-18.47,6.68-4.35,10.45-9,12.44-13.38l28.66-16.06a148.07,148.07,0,0,0,36.75-29.1l1.07-1.17c2.49-2.77,4.51-5.17,6.38-7.54l.17-.23,2.12-2.79.13-.17A148.62,148.62,0,0,0,492,126.5a34.16,34.16,0,0,0-28.61-48Z" transform="translate(-103.49 -77.91)"/></g><path class="cls-3" d="M461.83,78.34a146.56,146.56,0,0,0-26.59.39c-1.34.14-2.69.3-3.95.47A148.69,148.69,0,0,0,397,88l-.39.15-1.95.81a151.16,151.16,0,0,0-16.58,8l-31.63,17.73A28.24,28.24,0,0,0,331,116.87c-3.63,1.54-9.33,4.38-20.34,10.15-5.86,3.06-12.83,6.77-20.49,10.9a23.76,23.76,0,0,0-18.76,1.89l-10.24,5.74a23.85,23.85,0,0,0-14.09.12c-3.65,1.08-7.7,3.07-21.56,10.54-10.15,5.46-23.64,12.9-38,20.95-41.85,23.45-51.16,29.31-55.28,32.38a27.07,27.07,0,0,0-11.07,13.93c-3.94,11-.91,23,2.16,32.24,3.6,10.79,9.76,24.18,17.34,37.7,8.66,15.46,16.88,27.61,24.42,36.11,17.53,19.75,32.07,19.53,41.55,15.4,5-1.78,15.14-6.56,57-30,14.55-8.15,28.15-15.93,38.27-21.89,14.64-8.63,18.65-11.3,21.78-14.62a23.52,23.52,0,0,0,6-10.59l11.51-6.45.46-.27.29-.17.39-.24a23.58,23.58,0,0,0,10.41-15l4.37-2.55c16.89-9.84,26.13-15.37,30.89-18.47,6.68-4.35,10.45-9,12.44-13.38l28.66-16.06a148.07,148.07,0,0,0,36.75-29.1l1.07-1.17c2.49-2.77,4.51-5.17,6.38-7.54l.17-.23,2.12-2.79.13-.17A148.62,148.62,0,0,0,492,126.5a34.16,34.16,0,0,0-28.61-48Z" transform="translate(-103.49 -77.91)"/><path d="M200.14,328.48c3.71-1.17,13.7-5.91,54.89-29C269.5,291.4,283,283.7,293,277.81c13.52-8,16.62-10.12,18-11.68,2.4-2.25,2.07-5.39,1-8.62L332.57,246l.29-.17a6,6,0,0,0,2.77-5.09c0-1.06-.09-1.67-1.58-4.57,4.89-2.83,9.67-5.6,14.18-8.23,16.66-9.71,25.68-15.09,30.15-18,3.15-2,7.83-5.09,5.84-9.72l36.27-20.33a130.58,130.58,0,0,0,32.33-25.59l1-1.07c2.21-2.47,4-4.57,5.63-6.65l2.12-2.79a131.11,131.11,0,0,0,14.33-24.46,16.5,16.5,0,0,0-13.82-23.22L460.5,96a129.16,129.16,0,0,0-23.44.35c-1.16.12-2.33.26-3.47.41a130.73,130.73,0,0,0-30.18,7.72l-2.05.85a129.84,129.84,0,0,0-14.61,7l-39.41,22.08c-2.85-4-7.62-2-9.45-1.22-3.08,1.3-8.77,4.14-19,9.51-8.23,4.31-18.48,9.8-29.85,16-1.58-2.39-2.12-2.86-3.06-3.39a6,6,0,0,0-5.89,0l-19.35,10.84c-2.3-2.76-5-4.81-8.4-3.51-1.87.51-5.13,2-18.41,9.21-10,5.38-23.4,12.77-37.73,20.81-40.82,22.88-50.74,29.06-53.95,31.58h0a9.48,9.48,0,0,0-4.39,5.26c-2.08,5.82.12,14.18,2.29,20.7,3.25,9.76,8.93,22.07,16,34.66C169.26,308.27,187.52,334.77,200.14,328.48Z" transform="translate(-103.49 -77.91)"/><path d="M376.42,196.91l-30.37-54.18L390,118.09a123.74,123.74,0,0,1,42.53-14.48c-9.87,11.21-13.21,23-8.67,31.11,4.38,7.8,15.2,11.15,29.15,9.13A123.42,123.42,0,0,1,417.23,174Zm-71.66,57c-1-2.09-2.2-4.67-3.85-7.94-4.38-8.72-10.59-20.28-17.48-32.57s-13.51-23.61-18.65-31.91c-1.94-3.11-3.48-5.51-4.76-7.42l22.82-12.79c4.13,5.58,43.13,72.68,46,79.14Zm.15,3.67c-4.26,2.62-37.62,23-64.08,37.32a.71.71,0,0,0-.29.95h0a.69.69,0,0,0,.94.27c26.14-14.1,59-34.17,63.95-37.23a9.14,9.14,0,0,1,.73,2.6.57.57,0,0,0-.12.23c-3.81,4.16-102.69,59.58-108.22,60.66a.68.68,0,0,0-.54.06c-2.5,1.4-7.13-1.67-12.84-8,4.19-1.91,18.35-9.89,39.35-22.17a.71.71,0,0,0,.26-.95h0a.69.69,0,0,0-1-.25c-31,18.16-38.07,21.63-39.61,22.3-6.4-7.31-14-18.45-21.58-31.9-8.82-15.74-14.87-30-17.18-39.53,5.54-3.17,58.81-33.71,69-38.66a.7.7,0,0,0,.33-.93.67.67,0,0,0-.94-.33c-10,4.87-61.49,34.36-68.72,38.5-1.21-5.67-.93-9.47,1.08-10.6a.71.71,0,0,0,.3-.34c3.92-3.84,103-59.38,108.34-60.72h.18a9.14,9.14,0,0,1,1.86,2l-33.07,18.53a.7.7,0,0,0-.27.95.71.71,0,0,0,1,.27L257,172.07C267.06,186,298.3,241.76,304.91,257.59Zm40.42-113.28c-5.21,2.51-37.7,18.33-53.65,28.69-1.41-2.36-2.69-4.46-3.8-6.28,26.41-14.4,50.6-27.12,54.25-28.11Zm-22.51,82.28a201.91,201.91,0,0,0,28.61-17.83.7.7,0,1,0-.83-1.13,199,199,0,0,1-28.47,17.73C313.81,210.62,301,188.6,292.4,174.2c15.84-10.27,48.85-26.36,53.61-28.67l5.21,9.28c-4.1,2.12-26.75,13.79-30.79,15.79a.7.7,0,0,0-.32.94l0,0a.71.71,0,0,0,.92.29c4.07-2,26.88-13.78,30.85-15.82l25.91,46.22c-3,2.38-25.88,15.87-51.48,30.6C325.31,231,324.13,228.9,322.82,226.59ZM434.71,103.28c1-.13,2-.26,3-.36a123.35,123.35,0,0,1,22.25-.34l1.56.12a9.86,9.86,0,0,1,7.86,5,9.75,9.75,0,0,1,.39,8.84,124.67,124.67,0,0,1-13.61,23.22c-.62.82-1.24,1.65-1.87,2.47-14.09,2.41-25-.65-29.25-8.21C420.68,126.17,424.36,114.4,434.71,103.28Zm15.18,46.38c1.85-2.06,3.66-4.16,5.38-6.35l.35-.46.84-1.1.87-1.14a126.66,126.66,0,0,0,13.76-23.48,11.26,11.26,0,0,0-9.43-15.83l-1.55-.11a124.27,124.27,0,0,0-22.5.33c-1.11.12-2.23.26-3.34.41a124.72,124.72,0,0,0-28.85,7.35l-2.07.86a126.28,126.28,0,0,0-14,6.73l-1.38.77-1.69,1L345.36,141.5l-2.21-3.95c-.51-.82-.72-1.29-21.85,9.77-9.36,4.9-21.22,11.26-34.11,18.29a49.13,49.13,0,0,0-3.84-5.8.77.77,0,0,0-.72,0l-23.4,13.12c-3.86-5.62-4.68-5.66-5.25-5.37-1.36.26-5.21,2.17-17.58,8.83-10,5.38-23.37,12.76-37.66,20.77-42.85,24-52.12,29.9-53.91,31.69l-.06-.09c-3.49,2-3.38,8.59.32,19.71,3.15,9.45,8.69,21.44,15.59,33.75,9.88,17.63,28.86,46.21,37.3,41.47l0-.05c2.5-.51,12.35-5.09,54.51-28.71,14.44-8.08,27.88-15.77,37.84-21.64,12.7-7.48,16.18-9.83,17-10.86.5-.37.71-1.34-1.92-7.22L330,241.38h0a.74.74,0,0,0,.35-.64,53.37,53.37,0,0,0-3.36-6.61c6.43-3.7,12.72-7.34,18.58-10.76C380,203.3,379.76,202.87,379.28,202l-2.18-3.88,40.82-22.87a124.74,124.74,0,0,0,31-24.55Z" transform="translate(-103.49 -77.91)"/><path class="cls-12" d="M453,143.85c-13.95,2-24.77-1.33-29.15-9.13-4.54-8.11-1.2-19.9,8.67-31.11A123.74,123.74,0,0,0,390,118.09l-43.95,24.64,30.37,54.18L417.23,174A123.42,123.42,0,0,0,453,143.85Z" transform="translate(-103.49 -77.91)"/><path class="cls-3" d="M351.9,156c-4,2-26.78,13.81-30.85,15.82a.71.71,0,0,1-.92-.29l0,0a.7.7,0,0,1,.32-.94c4-2,26.69-13.67,30.79-15.79L346,145.53c-4.76,2.31-37.77,18.4-53.61,28.67,8.61,14.4,21.41,36.42,29.73,51.16a199,199,0,0,0,28.47-17.73.7.7,0,1,1,.83,1.13,201.91,201.91,0,0,1-28.61,17.83c1.31,2.31,2.49,4.43,3.51,6.27,25.6-14.73,48.51-28.22,51.48-30.6Z" transform="translate(-103.49 -77.91)"/><path class="cls-3" d="M342.13,138.61c-3.65,1-27.84,13.71-54.25,28.11,1.11,1.82,2.39,3.92,3.8,6.28,15.95-10.36,48.44-26.18,53.65-28.69Z" transform="translate(-103.49 -77.91)"/><path class="cls-13" d="M282.84,161.29,260,174.08c1.28,1.91,2.82,4.31,4.76,7.42,5.14,8.3,11.77,19.63,18.65,31.91s13.1,23.85,17.48,32.57c1.65,3.27,2.89,5.85,3.85,7.94l24.07-13.49C326,234,287,166.87,282.84,161.29Z" transform="translate(-103.49 -77.91)"/><path class="cls-13" d="M257,172.07l-33.23,18.62a.71.71,0,0,1-1-.27.7.7,0,0,1,.27-.95l33.07-18.53a9.14,9.14,0,0,0-1.86-2h-.18c-5.32,1.34-104.42,56.88-108.34,60.72a.71.71,0,0,1-.3.34c-2,1.13-2.29,4.93-1.08,10.6,7.23-4.14,58.7-33.63,68.72-38.5a.67.67,0,0,1,.94.33.7.7,0,0,1-.33.93c-10.18,4.95-63.45,35.49-69,38.66,2.31,9.57,8.36,23.79,17.18,39.53,7.54,13.45,15.18,24.59,21.58,31.9,1.54-.67,8.57-4.14,39.61-22.3a.69.69,0,0,1,1,.25h0a.71.71,0,0,1-.26.95c-21,12.28-35.16,20.26-39.35,22.17,5.71,6.29,10.34,9.36,12.84,8a.68.68,0,0,1,.54-.06c5.53-1.08,104.41-56.5,108.22-60.66a.57.57,0,0,1,.12-.23,9.14,9.14,0,0,0-.73-2.6c-5,3.06-37.81,23.13-63.95,37.23a.69.69,0,0,1-.94-.27h0a.71.71,0,0,1,.29-.95c26.46-14.28,59.82-34.7,64.08-37.32C298.3,241.76,267.06,186,257,172.07Zm-70.46,55.15a.86.86,0,0,1-.14-.18.7.7,0,0,1,.1-.81c2.24-2.47,43.59-24.6,48.3-27.11a.71.71,0,0,1,.94.28.69.69,0,0,1-.28.95c-18.4,9.84-46.35,25.09-47.93,26.82A.7.7,0,0,1,186.53,227.22Z" transform="translate(-103.49 -77.91)"/><path class="cls-12" d="M425.08,134c4.24,7.56,15.16,10.62,29.25,8.21.63-.82,1.25-1.65,1.87-2.47a124.67,124.67,0,0,0,13.61-23.22,9.75,9.75,0,0,0-.39-8.84,9.86,9.86,0,0,0-7.86-5l-1.56-.12a123.35,123.35,0,0,0-22.25.34c-1,.1-2,.23-3,.36C424.36,114.4,420.68,126.17,425.08,134Z" transform="translate(-103.49 -77.91)"/><path d="M235.45,200.35a.69.69,0,0,0,.28-.95.71.71,0,0,0-.94-.28c-4.71,2.51-46.06,24.64-48.3,27.11a.7.7,0,0,0-.1.81.86.86,0,0,0,.14.18.7.7,0,0,0,1-.05C189.1,225.44,217.05,210.19,235.45,200.35Z" transform="translate(-103.49 -77.91)"/></g></g></svg>