<svg id="Layer_2" data-name="Layer 2" xmlns="http://www.w3.org/2000/svg" viewBox="0 0 335 12.33"><title>14</title><path d="M320.14,99.05,316,97c-.6.29-1.19.57-1.8.88l-1.28.63c2.34,1.1,4.68,2.2,7,3.25l.16.08.16-.08c2.45-1.19,4.9-2.34,7.35-3.48L324.65,97C323.15,97.68,321.64,98.36,320.14,99.05Z" transform="translate(-57.5 -90.3)"/><path d="M208.6,94.23l3.17,1.67L215.45,94l-5-2.6-1.89-1-1.86,1-5,2.62,3.64,1.9Z" transform="translate(-57.5 -90.3)"/><path d="M288.26,98.85,284.71,97l-3.47,1.79c2.27,1.14,4.53,2.28,6.79,3.39l.18.09.18-.09q3.48-1.78,6.95-3.53L292,97C290.72,97.63,289.49,98.23,288.26,98.85Z" transform="translate(-57.5 -90.3)"/><path d="M176.75,94.28,180,95.91l3.48-1.78c-1.64-.81-3.28-1.64-4.92-2.44l-1.8-.87-1.73.9-4.86,2.5,3.38,1.68Z" transform="translate(-57.5 -90.3)"/><path d="M144.91,94.4l3.2,1.52,3.11-1.48c-1.59-.72-3.18-1.45-4.76-2.15l-1.6-.7-1.49.74c-1.54.76-3.07,1.49-4.61,2.24l2.91,1.33C142.75,95.4,143.83,94.91,144.91,94.4Z" transform="translate(-57.5 -90.3)"/><path d="M237.27,95.9l3.17-1.67,3.18,1.67,3.71-2-5-2.65-1.88-1-1.92,1c-1.67.87-3.33,1.76-5,2.63l.79.42Z" transform="translate(-57.5 -90.3)"/><path d="M367.79,94.73l3.11,1.2,1.89-.71c-1.33-.54-2.66-1.09-4-1.65l-1-.41-1.07.38c-1.4.5-2.81,1-4.22,1.54l2.13.85Z" transform="translate(-57.5 -90.3)"/><path d="M383.76,99.38q-3.22-1.14-6.45-2.38l-1.72.67c2.66,1,5.32,1.88,8,2.74l.13,0,.12,0q4.21-1.59,8.43-3L390.94,97C388.55,97.74,386.15,98.54,383.76,99.38Z" transform="translate(-57.5 -90.3)"/><path d="M272.29,94.24l3.23,1.66,3.54-1.81c-1.64-.86-3.29-1.71-4.93-2.59l-1.82-1-1.86.94c-1.66.84-3.31,1.7-5,2.55l3.61,1.87Z" transform="translate(-57.5 -90.3)"/><path d="M304.14,94.33l3.24,1.57,3.2-1.53C309,93.58,307.4,92.8,305.8,92l-1.63-.84-1.71.8c-1.61.76-3.23,1.55-4.84,2.32l3.3,1.64Z" transform="translate(-57.5 -90.3)"/><path d="M113.09,94.6l3.16,1.32,2.46-1c-1.47-.6-2.95-1.19-4.42-1.76l-1.24-.48-1.15.52c-1.42.63-2.83,1.24-4.24,1.85l2.27.92Z" transform="translate(-57.5 -90.3)"/><path d="M351.94,99.27c-1.75-.73-3.5-1.49-5.25-2.26l-2.46,1.1c2.5,1,5,2.08,7.5,3.07l.15.06.14-.06c2.6-1.14,5.19-2.24,7.79-3.31L357.57,97Q354.77,98.11,351.94,99.27Z" transform="translate(-57.5 -90.3)"/><path d="M256.38,98.73,253.15,97,249.47,99l6.69,3.49.21.1.19-.1,6.75-3.55L259.67,97Z" transform="translate(-57.5 -90.3)"/><path d="M224.51,98.7,221.31,97l-3.71,2,6.71,3.54.21.11.21-.11L231.39,99l-3.73-2Z" transform="translate(-57.5 -90.3)"/><path d="M65.35,99.35q-3.91-1.23-7.85-2.3v.42c2.59.78,5.18,1.6,7.77,2.48l.12,0,.11,0c2.78-.78,5.55-1.63,8.32-2.53L72.58,97Q69,98.25,65.35,99.35Z" transform="translate(-57.5 -90.3)"/><path d="M160.77,98.92l-4-1.9-1.89.9-1.34.61q3.54,1.71,7.08,3.49l.17.08L161,102c2.3-1.09,4.6-2.21,6.9-3.33-1.11-.57-2.21-1.11-3.32-1.66Z" transform="translate(-57.5 -90.3)"/><path d="M128.93,99.18c-1.69-.74-3.37-1.46-5.06-2.18l-2.58,1.09q3.78,1.65,7.56,3.41l.15.07.15-.06c2.42-1,4.83-2.1,7.25-3.18-.93-.45-1.86-.87-2.79-1.31Q131.27,98.12,128.93,99.18Z" transform="translate(-57.5 -90.3)"/><path d="M97.12,99.29l-3-1.11L90.84,97l-.39.14c-.49.18-1,.34-1.47.51q4,1.52,8.07,3.17l.14,0,.13,0c2.57-.93,5.14-1.91,7.71-2.92L102.87,97C101,97.79,99,98.56,97.12,99.29Z" transform="translate(-57.5 -90.3)"/><path d="M192.64,98.76,189.22,97c-1.23.63-2.41,1.22-3.56,1.79,2.28,1.18,4.55,2.35,6.82,3.54l.19.11.19-.1,6.73-3.45L196,97Z" transform="translate(-57.5 -90.3)"/><path d="M81.28,94.88c1,.34,2,.7,3,1.05l1.68-.6c-1.32-.44-2.63-.87-4-1.28l-.79-.25-.7.28q-1.83.7-3.66,1.38l1.4.48Z" transform="translate(-57.5 -90.3)"/><path d="M336,94.49l3.21,1.43,2.58-1.12-4.43-2.06L336,92.11l-1.41.59c-1.53.64-3.06,1.31-4.58,2,.92.43,1.85.85,2.76,1.26Z" transform="translate(-57.5 -90.3)"/><path d="M383.82,92.53l-.12,0-.13,0q-7.89,2.55-15.78,5.68-7.87-3-15.77-6.45l-.14-.06-.15,0q-7.87,3.12-15.76,6.69c-5.25-2.3-10.5-4.74-15.76-7.28a.8.8,0,0,0-.16-.08l-.16.07Q312,94.71,304.13,98.6q-7.86-3.82-15.74-7.88l-.18-.09-.18.09c-5.24,2.58-10.49,5.25-15.74,8-5.24-2.69-10.48-5.44-15.73-8.21l-.19-.11-.21.11c-5.24,2.71-10.48,5.47-15.72,8.23l-15.71-8.29-.21-.11-.21.11q-7.86,4.17-15.71,8.29-7.87-4.12-15.74-8.13l-.19-.1-.19.1q-7.86,4.13-15.73,8.08-7.87-4-15.75-7.74l-.17-.08-.17.08c-5.25,2.63-10.5,5.18-15.75,7.61-5.25-2.48-10.5-4.86-15.76-7.1l-.15-.06-.15.07q-7.87,3.64-15.76,6.9Q105.2,95,97.32,92.11l-.13,0-.14.06c-5.25,2.15-10.51,4.14-15.77,5.93Q73.39,95.2,65.5,93l-.11,0-.12,0c-2.59.88-5.18,1.69-7.77,2.46v.41c2.62-.71,5.24-1.45,7.85-2.28q7.59,2.33,15.19,5.28l.7.27.79-.24q4.05-1.27,8.09-2.69c1.35-.47,2.7-1,4-1.45,1-.36,2-.73,3-1.11q7.39,2.85,14.78,6.15l1.15.52,1.24-.48q7.32-2.85,14.64-6.07,7.22,3.27,14.44,6.85l1.49.74,1.6-.7q4-1.77,8-3.63c2.09-1,4.18-2,6.27-3q7.11,3.49,14.22,7.2l1.73.9,1.8-.88q7.06-3.45,14.12-7.06,7,3.63,14.08,7.37l1.86,1,1.89-1c4.68-2.42,9.36-4.88,14-7.33q7,3.72,14,7.4l1.92,1,1.88-1q7-3.74,14-7.43c4.68,2.45,9.37,4.88,14.06,7.25l1.86,1,1.82-1q7.06-3.75,14.13-7.34c4.74,2.36,9.47,4.67,14.2,6.89l1.71.8,1.63-.83q4-2,7.91-3.94c2.15-1.07,4.29-2.1,6.43-3.12,4.82,2.2,9.65,4.34,14.47,6.35l1.41.58,1.31-.62q7.31-3.47,14.61-6.54,7.41,3.07,14.83,5.74l1.07.38,1-.41q7.47-3.17,14.95-5.81c2.91,1,5.83,2,8.74,2.87v-.8C389.61,94.64,386.71,93.62,383.82,92.53Z" transform="translate(-57.5 -90.3)"/></svg>